<?xml version="1.0" encoding="UTF-8" standalone="no"?>
<!-- Uploaded to: SVG Repo, www.svgrepo.com, Generator: SVG Repo Mixer Tools -->

<svg
   width="700"
   height="210"
   viewBox="0 -11 61.25 18.375"
   fill="none"
   version="1.1"
   id="svg2"
   xmlns="http://www.w3.org/2000/svg"
   xmlns:svg="http://www.w3.org/2000/svg">
  <defs
     id="defs2" />
  <g
     id="g2"
     transform="translate(-4.375,-28.429495)">
    <path
       fill-rule="evenodd"
       clip-rule="evenodd"
       d="m 56.192,27.8963 h 1.7266 0.0015 c 0.1806,0.0034 0.3307,-0.1415 0.3373,-0.3258 v -4.887 c 0,-0.6138 0.0322,-1.1682 0.2745,-1.7225 0.1663,-0.4216 0.5581,-0.7055 1.0028,-0.7265 1.1044,0 1.0938,1.2358 1.0854,2.2067 -7e-4,0.0819 -0.0014,0.1619 -0.0014,0.2391 v 4.9309 c 0.0214,0.1582 0.1505,0.2782 0.3067,0.2851 h 1.7419 C 62.8324,27.8998 62.9747,27.7779 63,27.6112 V 21.8974 C 63,21.019 63,19.796 62.5477,19.0695 62.0585,18.2866 61.3011,18 60.5252,18 59.3292,18 58.65,18.5919 58.1654,19.8336 H 58.1317 V 18.4447 C 58.0967,18.2995 57.9714,18.1958 57.825,18.191 h -1.6069 c -0.1698,-0.0042 -0.3144,0.1251 -0.3327,0.2975 v 9.082 c 0.0022,0.1741 0.1363,0.3166 0.3066,0.3258 z m -1.6252,-4.7634 c 0,-2.8655 -1.3908,-5.1204 -3.9621,-5.1204 -2.5055,0 -3.8962,2.2173 -3.8962,5.0249 0,2.8075 1.3738,5.0624 3.8962,5.0624 2.4288,0 3.9621,-2.1969 3.9621,-4.9669 z M 49.263,22.7508 c 0,-1.1086 0.0812,-2.8843 1.3585,-2.8843 0.5489,0 0.9369,0.2521 1.1316,0.8784 0.2269,0.725 0.2591,1.6426 0.2591,2.4068 0,1.1649 -0.0506,3.0753 -1.4076,3.0753 -1.3422,0 -1.3418,-2.3162 -1.3416,-3.4395 z m -32.3991,5.1643 h 1.7311 0.0016 c 0.0868,0.002 0.171,-0.0314 0.2337,-0.0928 0.0627,-0.0614 0.0989,-0.1459 0.1005,-0.2346 v -4.8119 -0.0753 c -7e-4,-1.0463 -0.0017,-2.43 1.196,-2.43 1.1072,0 1.0901,1.2158 1.0763,2.1976 v 10e-5 0 0 10e-5 c -0.0015,0.1058 -0.003,0.2089 -0.003,0.3075 v 4.8135 c 0.003,0.1738 0.1367,0.3158 0.3067,0.3258 h 1.7357 c 0.0866,0.0015 0.1704,-0.032 0.2328,-0.0934 0.0624,-0.0614 0.0983,-0.1455 0.1,-0.234 v -4.8119 l -2e-4,-0.1144 c -10e-4,-0.5098 -0.0025,-1.1978 0.1627,-1.6252 0.1684,-0.437 0.5754,-0.7295 1.035,-0.7438 0.5014,0 0.8893,0.1722 1.0181,0.7829 0.0658,0.2939 0.0572,0.9753 0.0516,1.4271 -0.0013,0.1066 -0.0025,0.2005 -0.0025,0.2734 v 4.8135 c 0.0022,0.1741 0.1363,0.3166 0.3066,0.3258 h 1.7312 c 0.0869,0.002 0.171,-0.0314 0.2337,-0.0928 0.0627,-0.0614 0.0989,-0.1459 0.1005,-0.2346 v -5.7295 c 0,-0.1396 0.0024,-0.2823 0.0048,-0.4265 v -2e-4 c 0.0142,-0.8555 0.0292,-1.7661 -0.4418,-2.42 -0.5709,-0.7416 -1.4891,-1.1112 -2.4021,-0.9668 -0.9129,0.1444 -1.6786,0.7803 -2.0031,1.6636 -0.4861,-1.1477 -1.1807,-1.6817 -2.2479,-1.6817 -1.0672,0 -1.8599,0.534 -2.28,1.6817 H 18.8097 V 18.523 C 18.8006,18.354 18.6685,18.2191 18.503,18.2098 h -1.6146 c -0.1783,-0.0018 -0.3253,0.1421 -0.3312,0.3241 v 9.082 c 0.0157,0.1634 0.1461,0.2906 0.3067,0.2992 z m -3.013,0.0688 c -0.114,0.101 -0.2779,0.1179 -0.4094,0.0423 C 12.9509,27.6093 12.803,27.384 12.5758,27.038 12.5368,26.9784 12.4953,26.9154 12.4494,26.8471 11.4972,27.8367 10.8241,28.1327 9.59285,28.1327 8.13466,28.1327 7,27.2135 7,25.3752 7,23.9393 7.76666,22.9638 8.83999,22.4846 9.63255,22.1295 10.69,22.0192 11.6043,21.9239 v 0 0 c 0.17,-0.0177 0.335,-0.0349 0.4925,-0.0531 v -0.2286 c 0,-0.0436 3e-4,-0.0881 7e-4,-0.1332 0.003,-0.3898 0.0064,-0.8238 -0.2108,-1.1508 -0.2116,-0.3257 -0.6133,-0.4588 -0.9721,-0.4588 -0.6609,0 -1.24968,0.3461 -1.39381,1.0617 -0.01827,0.1669 -0.14405,0.3005 -0.30667,0.3257 L 7.54893,21.1004 C 7.46584,21.0883 7.39125,21.0419 7.34258,20.972 7.2939,20.9022 7.27537,20.815 7.29133,20.7309 7.6762,18.6514 9.51619,18.0235 11.1645,18.0235 c 0.8433,0 1.9443,0.2286 2.6067,0.88 0.7776,0.7435 0.7727,1.7168 0.7675,2.7804 -4e-4,0.0878 -9e-4,0.1762 -9e-4,0.2652 v 2.7543 c 0,0.7418 0.2695,1.1108 0.5534,1.4995 0.0337,0.0462 0.0677,0.0926 0.1014,0.14 0.1104,0.1566 0.1349,0.3523 0,0.4697 -0.3542,0.3023 -0.9829,0.8597 -1.3279,1.1744 z m -1.7465,-4.3124 10e-5,0.0858 c 6e-4,0.6513 0.0011,1.2036 -0.3236,1.7932 -0.276,0.498 -0.713,0.8049 -1.2006,0.8049 -0.66395,0 -1.05188,-0.5167 -1.05188,-1.284 0,-1.5064 1.32328,-1.7804 2.57598,-1.7804 z m 25.6891,2.5249 c 0.0338,0.0462 0.0677,0.0928 0.1015,0.1402 0.1165,0.1629 0.141,0.3539 -0.0077,0.4619 -0.3542,0.3022 -0.9828,0.8612 -1.3278,1.1744 -0.1148,0.0996 -0.2781,0.1159 -0.4094,0.0407 C 35.6573,27.595 35.5114,27.373 35.281,27.0224 l -10e-5,-10e-5 -5e-4,-8e-4 c -0.0383,-0.0583 -0.079,-0.1201 -0.1239,-0.187 -0.9507,0.9897 -1.6284,1.2856 -2.8551,1.2856 -1.4582,0 -2.5928,-0.9191 -2.5928,-2.7559 0,-1.4374 0.762,-2.413 1.8476,-2.8921 0.7943,-0.3565 1.8577,-0.4663 2.7746,-0.5609 h 10e-5 3e-4 10e-5 c 0.1662,-0.0172 0.3276,-0.0338 0.4817,-0.0514 v -0.2239 c 0,-0.0434 3e-4,-0.0877 7e-4,-0.1325 0.003,-0.3899 0.0064,-0.8241 -0.2123,-1.1499 -0.2055,-0.3257 -0.6149,-0.4604 -0.9721,-0.4604 -0.6609,0 -1.2466,0.3461 -1.3923,1.0617 -0.0188,0.1667 -0.1443,0.3 -0.3067,0.3257 l -1.6789,-0.1848 c -0.0837,-0.0117 -0.159,-0.0582 -0.208,-0.1284 -0.0491,-0.0703 -0.0676,-0.1581 -0.0512,-0.2427 0.3864,-2.081 2.2264,-2.7074 3.8747,-2.7074 0.8418,0 1.9428,0.2286 2.6067,0.88 0.7792,0.7397 0.7737,1.7054 0.7677,2.7636 v 9e-4 c -5e-4,0.093 -0.001,0.1868 -0.001,0.2811 v 2.7559 c 0,0.7403 0.2694,1.1091 0.5532,1.4977 z m -4.5016,0.1496 c 0.4861,0 0.9246,-0.3069 1.1991,-0.8033 0.3258,-0.5929 0.3255,-1.1478 0.3251,-1.8073 v -0.0702 -0.382 c -1.2528,0 -2.576,0.2724 -2.576,1.7803 0,0.7657 0.3879,1.2825 1.0518,1.2825 z m 6.0689,-7.8434 v 1.2934 c -9e-4,0.0887 0.0338,0.174 0.0961,0.2358 0.0623,0.0618 0.1467,0.0949 0.2335,0.0915 h 2.9808 l -3.4178,5.0107 c -0.156,0.2688 -0.2297,0.5791 -0.2116,0.891 v 1.3231 c 0,0.1911 0.207,0.4087 0.4048,0.3007 1.8851,-0.9982 4.1267,-1.0023 6.0153,-0.011 0.2162,0.1143 0.4201,-0.1065 0.4201,-0.2975 V 25.9498 C 45.8762,25.7372 45.7591,25.5441 45.5753,25.444 44.5802,24.8725 43.4225,24.705 42.3277,24.7316 l 2.9502,-4.2999 c 0.2744,-0.3852 0.4278,-0.6294 0.4278,-0.8158 v -1.1133 c 8e-4,-0.0884 -0.0337,-0.1734 -0.0957,-0.2352 -0.0619,-0.0618 -0.1459,-0.095 -0.2325,-0.092 h -5.6932 c -0.0867,-0.005 -0.1713,0.0278 -0.233,0.0901 -0.0617,0.0624 -0.0946,0.1486 -0.0905,0.2371 z"
       fill="#000000"
       id="path1" />
    <path
       fill-rule="evenodd"
       clip-rule="evenodd"
       d="m 42.208,33.6898 c 0.3941,-1.0006 1.2711,-3.2429 0.8541,-3.7863 h 0.003 C 42.6499,29.359 40.3192,29.6448 39.2708,29.7733 l -0.0022,3e-4 c -0.3189,0.0391 -0.368,-0.2443 -0.0813,-0.4494 1.8615,-1.3357 4.9113,-0.9536 5.2655,-0.5027 0.3542,0.451 -0.0966,3.5733 -1.84,5.064 -0.2683,0.2286 -0.5244,0.1065 -0.4048,-0.1957 z m -12.5258,1.5439 c 4.0542,0 8.7753,-1.3074 12.0274,-3.758 v 0.0047 c 0.5382,-0.4134 0.0767,-1.0209 -0.4722,-0.7829 -3.5499,1.5291 -7.3605,2.3273 -11.2132,2.3487 -5.3452,0 -10.5156,-1.4969 -14.6985,-3.9819 -0.3664,-0.2177 -0.6394,0.166 -0.3327,0.4462 4.027,3.7104 9.2655,5.7515 14.6892,5.7232 z"
       fill="#ff9900"
       id="path2" />
  </g>
</svg>
